HIERARCHY
ROOT Hips
{
  OFFSET 90.7885 88.945 -76.2838
  CHANNELS 6 Xposition Yposition Zposition Zrotation Xrotation Yrotation
  JOINT LeftUpLeg
  {
    OFFSET 8.64259 1.95398 -2.38835
    CHANNELS 3 Zrotation Xrotation Yrotation
    JOINT LeftLeg
    {
      OFFSET 43.7702 0 0
      CHANNELS 3 Zrotation Xrotation Yrotation
      JOINT LeftFoot
      {
        OFFSET 40.6238 0 0
        CHANNELS 3 Zrotation Xrotation Yrotation
        JOINT LeftToeBase
        {
          OFFSET 12.7242 0 0
          CHANNELS 3 Zrotation Xrotation Yrotation
          End Site
          {
            OFFSET 0 0 0
          }
        }
      }
    }
  }
  JOINT RightUpLeg
  {
    OFFSET -8.2249 1.95398 -2.59336
    CHANNELS 3 Zrotation Xrotation Yrotation
    JOINT RightLeg
    {
      OFFSET 43.5653 0 0
      CHANNELS 3 Zrotation Xrotation Yrotation
      JOINT RightFoot
      {
        OFFSET 40.6238 0 0
        CHANNELS 3 Zrotation Xrotation Yrotation
        JOINT RightToeBase
        {
          OFFSET 12.7242 0 0
          CHANNELS 3 Zrotation Xrotation Yrotation
          End Site
          {
            OFFSET 0 0 0
          }
        }
      }
    }
  }
  JOINT Spine
  {
    OFFSET 0.165834 0.87714 6.61349
    CHANNELS 3 Zrotation Xrotation Yrotation
    JOINT Spine1
    {
      OFFSET 7.38963 1.71661e-005 0
      CHANNELS 3 Zrotation Xrotation Yrotation
      JOINT Spine2
      {
        OFFSET 11.9445 1.14441e-005 0
        CHANNELS 3 Zrotation Xrotation Yrotation
        JOINT Spine3
        {
          OFFSET 14.7254 4.19617e-005 0
          CHANNELS 3 Zrotation Xrotation Yrotation
          JOINT Spine4
          {
            OFFSET 10.9679 0 0
            CHANNELS 3 Zrotation Xrotation Yrotation
            JOINT RightShoulder
            {
              OFFSET 2.46616 -1.6653 3.69651
              CHANNELS 3 Zrotation Xrotation Yrotation
              JOINT RightArm
              {
                OFFSET 13.0012 0 0
                CHANNELS 3 Zrotation Xrotation Yrotation
                JOINT RightForeArm
                {
                  OFFSET 28.7848 1.52588e-005 0
                  CHANNELS 3 Zrotation Xrotation Yrotation
                  JOINT RightHand
                  {
                    OFFSET 26.5688 1.52588e-005 0
                    CHANNELS 3 Zrotation Xrotation Yrotation
                    End Site
                    {
                      OFFSET 0 0 0
                    }
                  }
                }
              }
            }
            JOINT LeftShoulder
            {
              OFFSET 2.38034 -1.29275 -3.7523
              CHANNELS 3 Zrotation Xrotation Yrotation
              JOINT LeftArm
              {
                OFFSET 16.3182 6.10352e-005 0
                CHANNELS 3 Zrotation Xrotation Yrotation
                JOINT LeftForeArm
                {
                  OFFSET 27.0901 0 0
                  CHANNELS 3 Zrotation Xrotation Yrotation
                  JOINT LeftHand
                  {
                    OFFSET 24.5451 1.52588e-005 0
                    CHANNELS 3 Zrotation Xrotation Yrotation
                    End Site
                    {
                      OFFSET 0 0 0
                    }
                  }
                }
              }
            }
            JOINT Neck
            {
              OFFSET 5.0226 -0.0266342 0
              CHANNELS 3 Zrotation Xrotation Yrotation
              JOINT Head
              {
                OFFSET 6.69363 2.86102e-005 0
                CHANNELS 3 Zrotation Xrotation Yrotation
                End Site
                {
                  OFFSET 0 0 0
                }
              }
            }
          }
        }
      }
    }
  }
}
MOTION
Frames:	12
Frame Time:	0.0416667
41.0864 97.5031 21.3308 101.665 -60.1937 104.495 -175.587 -6.63885 89.7105 -22.8998 26.4834 -0.635952 80.4783 9.41203 -0.742509 6.04362 2.30874 0.949822 175.725 16.4423 91.117 -15.992 -8.84921 -1.75502 63.5185 -2.95101 -1.21697 25.5988 -1.75016 4.57689 -0.796982 8.06157 -90.5066 10.7438 -1.82051 -0.83994 -0.926109 -1.85572 -0.758997 -23.4666 -1.48392 -1.3483 -3.45394 -1.48392 -1.34832 88.6052 -32.9239 -108.331 41.4544 -4.98513 7.46952 2.98862 -22.7644 -14.1704 -22.9885 -0.462457 -8.72882 -88.1962 -48.9599 81.2393 -15.6996 14.3237 -34.8567 6.18114 3.35332 -13.019 2.83854 -0.205581 -6.88335 5.0999 -0.891673 -11.0171 -3.72287 1.12242 1.96711 
44.7001 95.5047 30.2417 99.7082 -56.2178 102.395 -172.403 -12.9095 94.1915 -21.4171 32.8228 -1.9463 83.3763 11.4969 -0.519867 8.26299 3.95659 -1.01338 174.402 18.3343 94.0274 -6.53795 -6.89179 1.04828 63.2841 -2.22499 1.72188 29.9601 -0.866616 1.8173 -0.857863 8.07127 -90.5318 10.7236 -1.95344 -0.877992 -0.946111 -1.99019 -0.791138 -23.4874 -1.59928 -1.42455 -3.47476 -1.59927 -1.42456 88.8455 -33.9516 -107.488 41.2251 -3.71736 8.7809 4.63564 -23.1446 -11.448 -21.0627 -0.475449 -9.14365 -88.1448 -48.7443 81.2732 -17.3311 14.4763 -36.9919 8.9843 7.40338 -19.345 1.45624 -0.204546 -7.93168 6.04926 -1.43113 -13.3369 -3.83122 1.11743 2.38993 
49.9627 94.3768 39.9662 99.8485 -52.4948 102.793 -170.524 -19.7961 97.1378 -21.8102 35.855 0.367289 78.4872 9.47857 2.09693 20.5887 8.1963 -8.93282 176.652 22.4603 95.6441 -21.9782 -12.4776 -0.758545 57.379 1.02718 -1.2829 24.4051 -1.82931 4.85476 -1.00699 8.0415 -90.7008 10.7787 -2.32846 -1.17797 -0.890604 -2.37805 -1.07431 -23.4332 -1.8668 -1.82338 -3.42053 -1.86682 -1.82338 89.6285 -34.7434 -105.751 40.1949 -4.32759 7.18092 5.58762 -23.1091 -8.41162 -21.053 -0.862258 -6.54878 -88.3109 -50.3634 81.3249 -20.531 14.1543 -33.2848 10.0914 10.5593 -18.6559 2.4141 -0.206605 -7.14675 6.66503 -0.991229 -10.7309 -4.45413 1.13071 0.645996 
55.4807 93.9279 48.9262 100.228 -49.2297 104.095 -169.786 -13.9375 99.7925 -40.9854 37.7809 4.86833 63.7355 2.30024 1.24951 28.8884 9.1922 -13.7591 176.038 21.7566 96.9 -35.6791 -8.85197 -0.19957 63.9737 -2.06271 -1.67849 22.1026 -0.545837 2.49909 -0.89768 7.9607 -91.0297 10.9307 -2.26345 -1.83501 -0.73942 -2.34199 -1.73362 -23.273 -1.60748 -2.43027 -3.26034 -1.60751 -2.43028 89.6987 -33.1358 -106.182 40.1814 -4.84228 5.65621 5.04481 -22.2546 -9.69689 -21.0878 -0.496659 -8.68304 -88.8133 -50.7155 80.6427 -22.8823 19.0681 -27.8596 4.23367 7.19981 -7.17206 0.177353 -0.108337 -6.01419 6.73097 -0.784317 -7.7162 -4.84216 0.725255 1.11019 
59.9111 94.4776 56.0312 101.818 -46.5471 105.369 -171.281 1.22298 100.957 -62.4036 24.339 5.80559 57.8479 -0.0648171 -3.07215 18.1171 -0.218136 2.13567 175.611 15.1597 97.6447 -38.1392 -7.12085 -0.0639011 71.1919 -5.29699 -3.6539 23.9931 -0.686432 2.48216 -0.455352 8.18394 -91.1087 10.4867 -1.41567 -2.07696 -1.18499 -1.5057 -2.01268 -23.7091 -0.726211 -2.40624 -3.69648 -0.726221 -2.40625 89.0734 -32.7945 -107.494 37.302 -7.59555 0.35305 3.86727 -22.6315 -12.7303 -23.1173 -0.418088 -8.93332 -89.5448 -52.1665 79.8477 -21.6494 22.2478 -22.2315 1.14016 10.7689 -3.17231 -4.54017 -0.0421399 -7.24345 7.89607 -1.26996 -6.45287 -3.5369 0.0965583 0.143982 
64.4825 96.194 61.9694 101.136 -45.5224 101.972 -173.806 15.3061 94.8222 -63.4373 10.0357 3.35129 70.5124 5.47555 1.39755 15.7871 1.20239 0.627205 174.62 7.83571 95.1595 -33.863 -6.64178 -0.887417 74.6886 -6.4755 -2.88059 23.7625 -0.42574 1.97528 0.0963148 8.23009 -90.7457 10.4119 -0.149785 -1.4681 -1.25984 -0.214252 -1.46009 -23.7884 0.298317 -1.44526 -3.77575 0.298303 -1.44526 88.3882 -32.3637 -108.957 32.7266 -8.46167 -6.86025 3.07672 -23.3101 -13.7341 -24.4689 -0.550717 -8.23709 -89.2495 -52.7734 80.397 -22.514 19.788 -13.0519 2.32622 5.98711 -5.03599 -1.6342 -0.0967535 -5.74445 6.94902 -2.02859 -6.00516 -1.86542 -0.79295 -0.602494 
69.9139 97.272 67.6412 99.5833 -46.7615 97.2554 -176.225 22.4738 88.749 -43.4635 2.34988 -0.37543 70.9611 5.82002 -0.0346962 13.2668 2.89121 -0.866598 172.922 1.76371 91.0806 -29.4334 -10.1821 -1.88104 77.0011 -7.57008 -4.53181 25.2918 -0.834037 2.58631 0.706999 8.17482 -90.2476 10.5279 1.29443 -0.607573 -1.14254 1.26644 -0.663977 -23.6827 1.41715 -0.190391 -3.67003 1.41718 -0.190386 88.3277 -30.054 -110.033 29.8814 -7.16375 -12.6274 1.50057 -24.4778 -17.0285 -24.6031 -0.754587 -7.42823 -88.5562 -52.8383 81.4158 -20.6597 18.9805 -5.50474 2.79586 1.80819 -8.59185 -0.82086 -0.110473 -5.843 5.45061 -2.32495 -3.43671 -0.9889 -1.66088 -2.36777 
76.199 96.8783 74.1364 100.93 -47.3846 96.9093 -179.099 19.9914 86.9882 -14.107 2.09265 -1.43186 62.9316 2.66965 -2.42584 16.178 -1.57134 3.83195 171.113 -7.20786 88.7206 -25.252 -11.4828 -2.28851 80.3613 -9.4942 -5.45459 24.6604 -0.904371 2.83881 1.05397 8.30698 -90.0501 10.2634 2.07691 -0.277694 -1.40595 2.06267 -0.368887 -23.9543 2.06432 0.359618 -3.94165 2.0643 0.359616 87.8823 -28.8119 -111.46 25.8785 -5.43902 -16.9639 -2.21231 -25.2526 -22.2392 -26.1641 -0.562051 -8.64549 -88.2385 -54.5317 82.1701 -18.6211 15.4795 0.619152 4.2113 0.869518 -10.9738 -1.57385 -0.102269 -6.09508 3.74553 -2.06223 -0.0278887 -0.265068 -2.06662 -3.33756 
83.6861 94.8907 81.8465 103.023 -48.9051 97.9636 179.51 19.7705 87.1492 -9.43857 -1.02613 -1.20957 62.9334 2.80057 -1.77856 14.0422 0.333723 1.88903 167.591 -16.3786 84.0543 -22.15 -14.7269 -2.36231 82.8496 -11.2206 -4.91418 28.0615 -0.623558 1.55712 1.34385 8.36299 -89.9597 10.1488 2.69616 -0.146319 -1.5194 2.68712 -0.264936 -24.0757 2.61539 0.671309 -4.06305 2.6154 0.671314 87.3943 -29.1212 -112.287 23.9876 -2.62685 -19.2392 -4.83965 -27.4316 -26.0354 -28.6721 -0.573547 -9.05121 -87.8989 -57.4738 83.1235 -16.8607 13.2032 4.13911 3.88659 -4.2668 -9.02349 -2.91824 -0.0850664 -5.61488 1.51197 -1.72906 1.96898 0.845711 -2.07247 -2.64669 
92.4138 94.2999 90.5346 103.125 -51.377 95.6717 -178.2 19.78 85.2167 -19.1175 1.45048 -2.92964 57.7578 -0.0335901 -1.61385 14.0572 -2.34883 4.86258 164.521 -19.7969 78.5002 -25.3502 -16.8619 -4.71394 74.8238 -7.4991 -4.63472 41.6497 -2.28148 3.69944 1.5719 8.17594 -89.4751 10.5179 3.37203 0.739717 -1.14876 3.4013 0.590422 -23.7117 2.99373 1.71974 -3.69905 2.9937 1.71972 86.619 -29.8885 -113.44 28.4199 -2.33331 -16.9704 -5.40707 -25.4559 -26.4602 -30.461 -0.408849 -9.05212 -87.1149 -58.1718 84.313 -16.7716 13.3412 4.0126 3.47824 -3.92302 -4.58995 -4.66666 -0.0760371 -5.1345 1.79273 -1.6968 1.05283 -1.1693 -1.85303 -2.74951 
100.907 94.8714 98.4917 104.551 -52.5457 93.9034 -176.448 16.2006 82.1475 -28.4305 2.68259 -5.2377 67.2358 3.34291 -0.142485 7.70632 -0.762936 3.79116 166.256 -13.0076 74.512 -45.8886 -18.1865 -7.32856 62.1153 -1.671 -3.67899 34.6764 -3.12627 6.99548 1.47201 8.05083 -89.015 10.7477 3.38545 1.64657 -0.919698 3.45465 1.49583 -23.4715 2.73418 2.5882 -3.45887 2.73418 2.58818 87.2286 -30.1257 -112.147 33.8464 -8.81036 -13.9001 -2.23441 -26.7745 -21.6259 -24.1186 -0.358308 -10.5784 -87.5966 -58.1411 83.6458 -16.726 14.3332 1.9009 3.16678 -1.17315 -3.66835 -6.21328 -0.0303479 -6.16468 1.43238 -1.58814 -0.348013 -2.20745 -1.50746 -3.14126 
106.97 95.7305 104.866 105.549 -54.6375 93.9875 -177.122 10.4321 81.2209 -30.069 0.267501 -5.95353 73.6916 5.52169 -0.689828 9.36634 -1.80749 4.71078 174.276 0.330032 76.2892 -65.9569 -16.9135 -7.62795 63.8108 -2.91558 -3.33446 23.5368 -2.30915 5.92257 1.24753 8.16535 -88.8751 10.5165 3.00149 1.96724 -1.15233 3.08514 1.83319 -23.6932 2.2717 2.77828 -3.68053 2.2717 2.77828 86.7755 -30.8487 -112.69 37.3398 -11.8026 -9.86884 1.60933 -27.4873 -16.6537 -22.7589 -0.591763 -9.57607 -88.1334 -57.6952 82.8376 -13.4267 15.9566 -7.1695 2.74329 2.60938 -4.35322 -2.45004 -0.0893355 -5.34731 4.09014 -0.805506 -0.250635 -2.24666 -0.739881 -3.29629 
